<?xml version="1.0" ?>
<svg data-name="Layer 1" id="Layer_1" viewBox="0 0 512 512" xmlns="http://www.w3.org/2000/svg">
    <title/>
    <circle cx="256" cy="256" fill="#fefefe" r="206.43"/>
    <path d="M355.38,237.87a13.2,13.2,0,0,1-6.5-1.71c-87.58-49.32-184.09-19.95-185.06-19.65a13.26,13.26,0,0,1-8-25.29c4.37-1.38,108.2-33.28,206.07,21.83a13.26,13.26,0,0,1-6.52,24.82Z"
          fill="#2e2e2e"/>
    <path d="M332.1,282.79a10.75,10.75,0,0,1-5.63-1.6C254.7,237.11,172.55,263.75,171.73,264a10.77,10.77,0,0,1-6.87-20.42c3.73-1.26,92.34-30.25,172.89,19.23a10.78,10.78,0,0,1-5.65,20Z"
          fill="#2e2e2e"/>
    <path d="M315.31,325a9.15,9.15,0,0,1-4.79-1.36c-59.87-37-132.54-14.82-133.26-14.59a9.12,9.12,0,0,1-5.51-17.38c3.29-1,81.24-25.06,148.37,16.46A9.12,9.12,0,0,1,315.31,325Z"
          fill="#2e2e2e"/>
</svg>